<svg fill-opacity="0.8" fill="#3498DB" stroke="#000000" stroke-width="1"  xmlns="http://www.w3.org/2000/svg" version="1.1" width="1524.78" height="1382.38" viewbox="0 0 1524.78 1382.38">
 <g>
  <path d="M2.1912000000015 120.22552886777 L1499.5868 123.37552934623 L1495.2052 156.41577301219 L1440.4358 217.59562105429 L1475.4882 272.3025211854 L1521.4946 305.03761889388 L1521.4946 807.96482707291 L1495.2052 814.00433774361 L1506.159 836.63274756395 L1499.5868 884.80441928366 L1524.7806 911.84017092567 L1509.4452 931.33882966114 L1502.873 985.21750797746 L1485.3468 1025.5135747506 L1522.59 1085.0356846796 L1486.4422 1077.6067812286 L1473.2974 1038.9244357807 L1368.1402 988.20574629636 L1273.9368 988.20574629636 L1245.4568 982.22873955892 L1221.3582 1009.1083242417 L1118.3918 959.79632267949 L1111.8194 946.32260922692 L486.3528 946.32260922692 L146.7824 944.82483261801 L1.0958000000016 944.82483261801 L0.00040000000183227 390.45866459397 L3.2866000000013 390.45866459397 L2.1912000000015 120.22552886777"/>
 </g>
</svg>
