<?xml version="1.0" encoding="UTF-8"?>
<svg id="Layer_2" data-name="Layer 2" xmlns="http://www.w3.org/2000/svg" xmlns:xlink="http://www.w3.org/1999/xlink" viewBox="0 0 2295.17 620.84">
  <defs>
    <style>
      .cls-1 {
        fill: url(#linear-gradient);
      }

      .cls-1, .cls-2, .cls-3 {
        stroke-width: 0px;
      }

      .cls-2 {
        fill: #720058;
      }

      .cls-3 {
        fill: none;
      }
    </style>
    <linearGradient id="linear-gradient" x1="438.32" y1="310.81" x2="870.23" y2="310.81" gradientUnits="userSpaceOnUse">
      <stop offset="0" stop-color="#720058"/>
      <stop offset=".17" stop-color="#840e4c"/>
      <stop offset=".52" stop-color="#b4332e"/>
      <stop offset="1" stop-color="#ff6e00"/>
    </linearGradient>
  </defs>
  <g id="Layer_1-2" data-name="Layer 1">
    <g>
      <g>
        <polygon class="cls-2" points="1007.2 307.09 1007.08 443.75 969.84 443.75 969.9 384.73 930.28 384.73 930.22 443.75 892.99 443.75 893.11 307.09 930.35 307.09 930.3 357.6 969.92 357.6 969.97 307.09 1007.2 307.09"/>
        <path class="cls-2" d="M1119.63,346.5c-12-1.92-27.07-3.86-39.08-3.97-8.32,0-15.81.47-22.48,1.39-6.68.93-12.37,2.97-17.07,6.14-4.71,3.17-8.32,8.09-10.82,14.76-2.5,6.67-3.81,15.75-3.92,27.23-.06,11.89.99,21.96,3.13,30.21,2.14,8.25,5.81,14.43,11.01,18.52,5.19,4.09,12.31,5.88,21.34,5.35,8.12-.53,15.17-2.51,21.16-5.94,5.99-3.44,10.85-8.32,14.59-14.66.27-.46.54-.93.79-1.4l2.75,19.62h27.73l.16-95.27c-2.21-.66-5.3-1.32-9.29-1.98ZM1090.19,405.14c-5.14,7.37-15.76,17.39-24.3,11.09-1.38-1.32-2.24-3.93-2.58-7.82-.35-3.9-.51-9.54-.49-16.94.23-8.25.49-15.07,4.57-20.5,3.47-3.9,8.31-4.11,13.76-4.26,4.23,0,8.19.03,11.9.1h.15l-.12,33.84c-.92,1.55-1.88,3.05-2.89,4.49Z"/>
        <path class="cls-2" d="M1193.65,342.54c7,0,14.41.56,22.22,1.68,7.81,1.12,14.8,2.94,20.96,5.45l-1.88,21.99c-6.75-.13-12.9-.2-18.45-.2h-14.26c-4.89,0-8.69.69-11.4,2.08-6.99,3.82-7.24,11.77-7.41,20.7.2,9.14.25,17.99,7.35,21.39,2.67,1.19,6.39,1.78,11.14,1.78,6.11-.01,13.43-.14,20.23-.5,4-.2,7.95-.5,11.86-.89l5.78,22.98c-5.84,2.64-12.32,4.49-19.43,5.55-7.12,1.06-14.04,1.58-20.77,1.58-11.62,0-21.44-1.78-29.47-5.35s-14.07-9.24-18.13-17.03c-4.06-7.79-6.12-18.02-6.17-30.7.04-12.01,1.52-21.72,4.45-29.12,2.93-7.39,7.88-12.81,14.87-16.24,6.98-3.43,16.48-5.15,28.5-5.15Z"/>
        <path class="cls-2" d="M1359.85,443.75h-37.04l-22.74-38.35c-3.93,1.65-7.81,3.17-11.64,4.54.12,1.23.2,2.4.24,3.51l-.13,30.3h-36.05l.05-138.65h36.05l.21,56.85c-.07,4.22-.49,8.28-1.27,12.18-.75,3.79-1.86,7.74-3.33,11.84,3.61-1.98,7.06-4.28,10.36-6.89,5.59-4.42,10.16-9.54,13.71-15.35,3.54-5.81,5.66-11.95,6.34-18.42h37.04c-1.17,10.56-4.04,19.54-8.62,26.94-4.58,7.39-10.16,13.56-16.73,18.52-.61.46-1.22.91-1.83,1.34,1.63,1.1,3.1,2.31,4.41,3.61,2.99,2.97,5.44,6.11,7.35,9.41l23.62,38.62Z"/>
        <path class="cls-2" d="M1420.93,304.31c7.41.13,15.31.66,23.69,1.58,8.38.93,16.43,2.57,24.16,4.95l.18,23.97c-4.11-.13-8.75-.23-13.91-.3-5.16-.06-10.45-.13-15.87-.2-5.43-.06-10.84-.1-16.26-.1-5.6.35-11.95-.71-15.07,4.16-3.89,8.22,2.52,13.7,10.45,16.64l25.26,10.7c7.85,3.3,13.93,6.87,18.23,10.7,4.3,3.83,7.36,8.25,9.18,13.27,1.82,5.02,2.81,10.89,2.96,17.63.12,10.3-1.38,18.29-4.48,23.97-3.1,5.68-8.33,9.64-15.67,11.88-7.35,2.24-17.36,3.37-30.03,3.37-5.42,0-12.74-.43-21.97-1.29-9.23-.86-19.11-2.54-29.62-5.05l-.06-25.95c7.68.13,14.6.3,20.77.5,8.99.3,17.77.47,24.73.5,8.63-.32,19.12.58,19.3-9.31.67-6.75-3.98-8.63-9.67-11.09l-27.18-11.69c-7.76-3.57-13.81-7.39-18.14-11.49-8.78-8.17-11.55-18.07-11.97-29.71-.07-12.89,2.16-23.22,12.15-30.01,4.18-2.71,9.52-4.65,16.02-5.84,6.5-1.19,14.11-1.78,22.83-1.78Z"/>
        <path class="cls-2" d="M1601.03,333.42c-4.7-10.43-11.79-17.76-21.3-21.98-9.5-4.23-21.58-6.34-36.24-6.34-6.21,0-12.44.07-18.69.2-6.25.13-12.26.36-18.03.69-5.76.33-11.12.69-16.09,1.09l-.12,136.67c8.79.53,17.93.99,27.43,1.39,9.49.39,19.66.59,30.49.59s20.85-1.02,28.49-3.07c7.63-2.04,13.71-5.54,18.24-10.5,4.52-4.95,7.77-11.94,9.74-20.99,1.97-9.04,2.98-20.5,3.03-34.37.06-18.48-2.26-32.94-6.95-43.38ZM1567.36,396.62c-.9,5.81-2.32,10.3-4.25,13.47-1.94,3.17-4.48,5.32-7.62,6.44-3.15,1.12-6.9,1.68-11.26,1.68-5.43,0-10.96-.06-16.61-.18l.08-85.39h18.45c4.62,0,8.4.56,11.33,1.68,2.93,1.13,5.2,3.21,6.81,6.24,1.61,3.04,2.73,7.27,3.36,12.68.62,5.42.93,12.35.92,20.8.1,9.24-.3,16.77-1.21,22.58Z"/>
        <path class="cls-2" d="M1672.8,304.31c7.41.13,15.31.66,23.69,1.58,8.38.93,16.43,2.57,24.16,4.95l.18,23.97c-4.11-.13-8.75-.23-13.91-.3-5.16-.06-10.45-.13-15.87-.2-5.43-.06-10.84-.1-16.26-.1-7.53.24-16-.61-16.19,8.91.11,1.72.45,3.24,1.03,4.56.58,1.32,1.7,2.51,3.37,3.57,1.66,1.06,4.05,2.31,7.16,3.76l25.26,10.7c7.85,3.3,13.93,6.87,18.23,10.7,4.3,3.83,7.36,8.25,9.18,13.27,1.82,5.02,2.81,10.89,2.96,17.63.12,10.3-1.38,18.29-4.48,23.97-3.1,5.68-8.33,9.64-15.67,11.88-7.35,2.24-17.36,3.37-30.03,3.37-5.42,0-12.74-.43-21.97-1.29-9.23-.86-19.11-2.54-29.62-5.05l-.06-25.95c7.68.13,14.6.3,20.77.5,8.99.3,17.77.47,24.73.5,8.63-.32,19.12.58,19.3-9.31.66-6.75-3.98-8.63-9.67-11.09l-27.18-11.69c-7.76-3.57-13.81-7.39-18.14-11.49-4.33-4.09-7.38-8.62-9.12-13.57-1.75-4.95-2.7-10.33-2.85-16.14-.13-7.53.82-13.73,2.85-18.62,2.02-4.88,5.13-8.68,9.3-11.39,4.18-2.71,9.52-4.65,16.02-5.84,6.5-1.19,14.11-1.78,22.83-1.78Z"/>
        <path class="cls-2" d="M1856.85,307.08l-.26,81.81c.01,14.26-1.71,25.59-5.16,33.97-3.45,8.39-9.18,14.43-17.18,18.12-8,3.7-18.87,5.55-32.6,5.55s-24.67-1.95-33.6-5.84c-8.93-3.89-15.65-10.17-20.16-18.82-4.51-8.65-6.84-20.1-6.98-34.37l.26-80.42h37.24l-.26,81.81c0,7.53.52,13.44,1.58,17.73,1.06,4.29,3.06,7.3,6.01,9.01,2.94,1.72,7.12,2.57,12.54,2.57s10.04-.92,13.08-2.77c3.04-1.85,5.11-5.02,6.2-9.51,1.09-4.49,1.75-10.63,1.98-18.42l.06-80.42h37.24Z"/>
      </g>
      <path class="cls-1" d="M849.52,127.89c-.42-.28-.84-.56-1.27-.84-.01,0-.01-.01-.02-.01-.71-.44-1.43-.9-2.16-1.31-.87-.52-1.78-.99-2.68-1.44-.41-.21-.84-.41-1.27-.6-.04-.02-.09-.04-.13-.06-20.23-9.18-44.23-3.24-57.84,14.29-.78,1-1.51,2.03-2.22,3.09,0,0,0,.02-.02.03-.03.1-.12.18-.16.28-.84,1.45-1.66,2.88-2.52,4.35-4.9,8.5-9.83,17.02-14.74,25.53-.18.3-.36.61-.53.92-.23.4-.47.81-.71,1.23-3.01,5.24-6.03,10.43-9.06,15.71.18-.31.36-.62.55-.93-.99,1.69-1.96,3.37-2.94,5.07.24-.4.47-.8.7-1.2-8.81,15.23-17.61,30.5-26.4,45.73-2.01,3.49-3.98,6.9-5.89,10.21-.38.66-.76,1.32-1.15,1.97-1.97,3.43-3.88,6.73-5.69,9.86-.28.49-.56.97-.83,1.45-2.26,3.93-4.37,7.57-6.26,10.85-.24.4-.51.78-.81,1.13-.1.12-.2.23-.31.34-.09.08-.17.16-.26.24-.05.06-.11.11-.17.15-.12.11-.28.22-.41.31-.32.24-.65.44-1,.61-.96.48-2.04.73-3.12.73,0,0-91.82,0-91.82,0-.73,0-1.47-.12-2.17-.35-.04,0-.08-.02-.11-.03-.71-.26-1.4-.61-2-1.08-.49-.37-.92-.81-1.3-1.29-.09-.12-.18-.25-.27-.37-.2-.3-.36-.59-.54-.91-3.71-6.42-6.66-11.53-10.81-18.74-7.78-13.47-15.57-27-23.36-40.49-.82-1.44-1.66-2.87-2.48-4.3-.41-.72-.82-1.44-1.24-2.15-.11-.19-.22-.38-.33-.56-9.59-16.62-19.19-33.27-28.79-49.87.02.04.05.08.08.12-1.74-2.95-3.37-5.88-5.1-8.8.08.12.15.24.23.37-1.54-2.53-2.8-5.11-4.5-7.5-.32-.48-.69-.96-1.04-1.43-13.57-17.75-37.7-23.8-58.04-14.59h0c-.42.19-.83.39-1.25.59,0,0,0,0,0,0-.61.3-1.22.6-1.81.93-.23.12-.45.24-.67.37h0c-1.21.69-2.41,1.41-3.55,2.2-.09.05-.17.1-.25.16-20,13.79-26.47,40.38-15.17,61.9.25.47.51.94.77,1.42l81.5,141.17c4.48,7.73,6.86,16.66,6.85,25.6v3.63h-33.79c-5.55,0-10.05,4.5-10.05,10.05s4.5,10.05,10.05,10.05h33.32c.15-.01.3-.01.46-.01h18.57v-16c0-4.99,4.05-9.04,9.04-9.04s9.04,4.05,9.04,9.04v25.04c0,5.78,3.11,11.16,8.12,14.06,2.46,1.43,5.28,2.18,8.12,2.18h19.08c4.99-.01,9.04,4.04,9.04,9.03s-4.05,9.04-9.04,9.04h-19.08c-6.02.01-11.96-1.59-17.16-4.59-7.91-4.57-13.58-12.08-15.95-20.68h-19.78v19.2c0,1.48.09,2.96.26,4.43.08.65.18,1.3.29,1.95.02.08.03.16.04.25h-34.41c-5.56,0-10.05,4.5-10.05,10.05s4.49,10.05,10.05,10.05h43.85c.39,0,.77-.02,1.16-.07h0c.5.49,1.02.98,1.57,1.46.84.73,1.7,1.42,2.61,2.08l19.34,14.07h-16.92c-5.55,0-10.05,4.49-10.05,10.05s4.5,10.05,10.05,10.05h43.86c.23,0,.45-.01.67-.02h.01l16.29,11.83c.29.21.57.41.86.61.07.04.13.09.2.13.05.04.09.07.14.1.18.12.36.23.54.35,5.6,3.6,12.06,5.64,18.71,5.9.08,0,.16,0,.24,0,.41,0,.82.02,1.24.02h41.42c.4,0,.8-.01,1.21-.02.15,0,.3,0,.45-.02,6.81-.3,13.4-2.45,19.07-6.24.41-.27.81-.55,1.22-.84l16.29-11.84h.01c.23.02.48.03.72.03h43.86c5.55,0,10.05-4.5,10.05-10.05s-4.5-10.05-10.05-10.05h-16.98l19.35-14.07c.9-.66,1.78-1.35,2.61-2.08.54-.47,1.07-.96,1.57-1.46h.01c.38.05.76.07,1.16.07h43.86c5.55,0,10.05-4.49,10.05-10.05s-4.5-10.05-10.05-10.05h-34.42v-.02s0-.03.01-.05l.03-.18c.11-.64.21-1.3.29-1.95.17-1.48.26-2.95.26-4.43v-19.2h-19.78c-2.36,8.6-8.03,16.11-15.94,20.68-5.22,3-11.14,4.6-17.16,4.6h-19.08c-4.99-.01-9.04-4.06-9.04-9.05s4.05-9.04,9.04-9.04h19.08c2.84.01,5.66-.74,8.12-2.17,5-2.89,8.12-8.28,8.12-14.06v-25.04c0-4.99,4.05-9.04,9.04-9.04s9.04,4.05,9.04,9.04v16h18.55s33.84.01,33.84.01c5.55,0,10.05-4.5,10.05-10.05s-4.5-10.05-10.05-10.05h-33.84v-3.62c-.01-8.96,2.4-17.9,6.86-25.62l81.49-141.15h0c.21-.38.42-.75.61-1.13h0c.13-.23.24-.45.35-.67,11.03-21.45,4.51-47.82-15.36-61.53ZM830.27,190.12c0,.11-.01.23-.01.34-.08,2.48-.62,4.94-1.56,7.24-.35.86-.76,1.71-1.24,2.52l-64.91,112.43c-.89,1.53-2,2.89-3.33,4.05-.79.69-1.65,1.31-2.56,1.84l-78.83,45.51c-.09.05-.18.1-.26.16-.09.06-.17.12-.25.18-.16.13-.31.26-.46.41-.87.85-1.36,2.06-1.36,3.28v90.64c0,.35-.05.7-.14,1.05h0c-.09.34-.22.66-.4.96h0c-.08.15-.17.29-.28.43h0c-.11.14-.22.28-.34.4-.25.25-.53.46-.84.64l-17.21,9.93c-.31.18-.63.32-.97.4-.34.1-.68.14-1.04.14-.31,0-.62-.04-.92-.12-.08,0-.15-.03-.23-.06-.29-.08-.58-.2-.85-.36l-17.2-9.93c-.31-.18-.59-.39-.83-.64-.13-.13-.24-.26-.34-.4-.11-.14-.21-.28-.29-.42h0c-.09-.16-.17-.31-.23-.47-.2-.48-.31-1-.31-1.54v-90.65c0-.52-.09-1.02-.25-1.51-.23-.68-.61-1.27-1.12-1.77-.14-.15-.29-.28-.45-.41-.08-.06-.16-.12-.25-.18-.09-.06-.17-.11-.26-.16l-78.82-45.53c-.91-.53-1.77-1.15-2.56-1.84-.26-.23-.52-.47-.76-.72-.98-.98-1.85-2.11-2.55-3.33l-64.93-112.41c-4.55-7.65-3.43-18.06,2.66-24.57h.01c.62-.71,1.33-1.36,2.06-1.96,4.28-3.61,10.09-5.37,15.65-4.71.01-.01.02-.01.03,0,1.27.16,2.54.4,3.77.77,0-.01.02-.01.03,0,5.03,1.49,9.41,4.98,12.03,9.54l62.72,108.6c.7,1.23,1.57,2.34,2.55,3.34.25.24.5.48.76.71.79.69,1.65,1.31,2.56,1.84l65.35,37.73c.45.26.93.46,1.44.6,1.03.28,2.13.28,3.16,0,.25-.07.49-.15.73-.25.12-.05.24-.1.36-.16.12-.06.23-.12.34-.19l65.34-37.71c.91-.53,1.77-1.15,2.56-1.84,1.32-1.16,2.44-2.52,3.33-4.05l62.7-108.62c.16-.27.32-.54.5-.81h0c.17-.28.35-.54.53-.79h0c.08-.12.16-.23.24-.33.1-.14.21-.29.32-.43h0s.15-.19.15-.19c.05-.06.1-.12.15-.18.1-.13.2-.25.3-.37,2.2-2.59,4.96-4.54,7.99-5.78.83-.34,1.69-.63,2.57-.86.89-.24,1.79-.41,2.69-.53,5.36-.74,11.19.84,15.5,4.23,0,0,0,.01.01.01.36.28.72.58,1.07.88,2.51,2.24,4.53,5.1,5.67,8.27.03.05.05.1.06.15.07.16.12.33.17.49.34.99.61,2.02.78,3.05.01.02.01.04.01.06.07.33.1.66.16.99.03.29.08.61.08.89.08.68.07,1.38.08,2.07Z"/>
      <rect class="cls-3" width="2295.17" height="620.84"/>
    </g>
  </g>
</svg>