<?xml version="1.0" encoding="UTF-8"?>
<svg id="Layer_2" data-name="Layer 2" xmlns="http://www.w3.org/2000/svg" xmlns:xlink="http://www.w3.org/1999/xlink" viewBox="0 0 860.78 860.78">
  <defs>
    <style>
      .cls-1 {
        fill: url(#linear-gradient);
      }

      .cls-1, .cls-2, .cls-3 {
        stroke-width: 0px;
      }

      .cls-2 {
        fill: #720058;
      }

      .cls-3 {
        fill: none;
      }
    </style>
    <linearGradient id="linear-gradient" x1="214.44" y1="355.86" x2="646.34" y2="355.86" gradientUnits="userSpaceOnUse">
      <stop offset="0" stop-color="#720058"/>
      <stop offset=".17" stop-color="#840e4c"/>
      <stop offset=".52" stop-color="#b4332e"/>
      <stop offset="1" stop-color="#ff6e00"/>
    </linearGradient>
  </defs>
  <g id="Layer_1-2" data-name="Layer 1">
    <g>
      <g>
        <polygon class="cls-2" points="227.43 605.72 227.36 681.16 206.81 681.16 206.84 648.58 184.97 648.58 184.94 681.16 164.39 681.16 164.45 605.72 185.01 605.72 184.98 633.6 206.85 633.6 206.88 605.72 227.43 605.72"/>
        <path class="cls-2" d="M289.48,627.48c-6.62-1.06-14.94-2.13-21.57-2.19-4.59,0-8.73.26-12.41.77-3.69.51-6.83,1.64-9.42,3.39-2.6,1.75-4.59,4.47-5.97,8.15-1.38,3.68-2.1,8.69-2.16,15.03-.03,6.56.55,12.12,1.73,16.67,1.18,4.55,3.21,7.96,6.08,10.22,2.86,2.26,6.79,3.25,11.78,2.95,4.48-.29,8.37-1.39,11.68-3.28,3.31-1.9,5.99-4.59,8.05-8.09.15-.25.3-.51.44-.77l1.52,10.83h15.31l.09-52.58c-1.22-.36-2.93-.73-5.13-1.09ZM273.23,659.84c-2.84,4.07-8.7,9.6-13.41,6.12-.76-.73-1.24-2.17-1.42-4.32-.19-2.15-.28-5.27-.27-9.35.13-4.55.27-8.32,2.52-11.31,1.92-2.15,4.59-2.27,7.59-2.35,2.33,0,4.52.02,6.57.06h.08l-.07,18.68c-.51.86-1.04,1.68-1.6,2.48Z"/>
        <path class="cls-2" d="M330.34,625.29c3.86,0,7.95.31,12.27.93,4.31.62,8.17,1.62,11.57,3.01l-1.04,12.14c-3.73-.07-7.12-.11-10.18-.11h-7.87c-2.7,0-4.79.38-6.29,1.15-3.86,2.11-4,6.49-4.09,11.42.11,5.05.14,9.93,4.05,11.81,1.48.66,3.53.98,6.15.98,3.37,0,7.41-.08,11.17-.27,2.21-.11,4.39-.27,6.55-.49l3.19,12.68c-3.22,1.46-6.8,2.48-10.72,3.06-3.93.58-7.75.87-11.47.87-6.41,0-11.84-.98-16.26-2.95-4.43-1.97-7.76-5.1-10-9.4-2.24-4.3-3.38-9.95-3.41-16.95.02-6.63.84-11.99,2.46-16.07,1.62-4.08,4.35-7.07,8.2-8.96,3.85-1.89,9.1-2.84,15.73-2.84Z"/>
        <path class="cls-2" d="M422.07,681.16h-20.44l-12.55-21.17c-2.17.91-4.31,1.75-6.42,2.51.07.68.11,1.32.13,1.94l-.07,16.72h-19.9l.03-76.53h19.9l.12,31.38c-.04,2.33-.27,4.57-.7,6.72-.41,2.09-1.03,4.27-1.84,6.53,1.99-1.09,3.9-2.36,5.72-3.8,3.09-2.44,5.61-5.27,7.57-8.47,1.95-3.21,3.12-6.6,3.5-10.17h20.44c-.65,5.83-2.23,10.78-4.76,14.87-2.53,4.08-5.61,7.48-9.23,10.22-.34.25-.67.5-1.01.74.9.61,1.71,1.27,2.43,1.99,1.65,1.64,3,3.37,4.06,5.19l13.04,21.32Z"/>
        <path class="cls-2" d="M455.78,604.19c4.09.07,8.45.37,13.08.87,4.63.51,9.07,1.42,13.34,2.73l.1,13.23c-2.27-.07-4.83-.13-7.68-.16-2.85-.04-5.77-.07-8.76-.11-2.99-.04-5.98-.05-8.97-.05-3.09.19-6.6-.39-8.32,2.3-2.15,4.54,1.39,7.56,5.77,9.18l13.94,5.9c4.34,1.82,7.69,3.79,10.06,5.9,2.37,2.11,4.06,4.56,5.07,7.32,1.01,2.77,1.55,6.01,1.63,9.73.06,5.69-.76,10.1-2.47,13.23-1.71,3.13-4.6,5.32-8.65,6.56-4.05,1.24-9.58,1.86-16.58,1.86-2.99,0-7.03-.24-12.13-.71-5.1-.47-10.55-1.4-16.35-2.79l-.03-14.32c4.24.07,8.06.16,11.46.27,4.96.16,9.81.26,13.65.27,4.77-.18,10.55.32,10.65-5.14.37-3.72-2.2-4.76-5.34-6.12l-15-6.45c-4.28-1.97-7.62-4.08-10.01-6.34-4.85-4.51-6.37-9.97-6.61-16.4-.04-7.12,1.19-12.82,6.71-16.56,2.31-1.49,5.25-2.57,8.84-3.23,3.59-.66,7.79-.98,12.6-.98Z"/>
        <path class="cls-2" d="M555.19,620.26c-2.59-5.76-6.51-9.8-11.76-12.13-5.24-2.33-11.91-3.5-20-3.5-3.43,0-6.87.04-10.32.11-3.45.07-6.77.2-9.95.38-3.18.18-6.14.38-8.88.6l-.07,75.43c4.85.29,9.9.55,15.14.77,5.24.22,10.85.33,16.83.33s11.51-.56,15.73-1.69c4.21-1.13,7.57-3.06,10.07-5.8,2.49-2.73,4.29-6.59,5.38-11.59,1.09-4.99,1.64-11.31,1.67-18.97.03-10.2-1.25-18.18-3.84-23.94ZM536.61,655.14c-.5,3.21-1.28,5.68-2.35,7.43-1.07,1.75-2.47,2.94-4.21,3.55-1.74.62-3.81.93-6.21.93-3,0-6.05-.03-9.17-.1l.04-47.13h10.18c2.55,0,4.64.31,6.25.93,1.62.62,2.87,1.77,3.76,3.44.89,1.68,1.51,4.01,1.85,7,.34,2.99.51,6.82.51,11.48.06,5.1-.17,9.26-.67,12.46Z"/>
        <path class="cls-2" d="M594.81,604.19c4.09.07,8.45.37,13.08.87,4.63.51,9.07,1.42,13.34,2.73l.1,13.23c-2.27-.07-4.83-.13-7.68-.16-2.85-.04-5.77-.07-8.76-.11-2.99-.04-5.98-.05-8.97-.05-4.16.13-8.83-.34-8.93,4.92.06.95.25,1.79.57,2.51.32.73.94,1.39,1.86,1.97.92.58,2.24,1.28,3.95,2.08l13.94,5.9c4.34,1.82,7.69,3.79,10.06,5.9,2.37,2.11,4.06,4.56,5.07,7.32,1.01,2.77,1.55,6.01,1.63,9.73.06,5.69-.76,10.1-2.47,13.23-1.71,3.13-4.6,5.32-8.65,6.56-4.05,1.24-9.58,1.86-16.58,1.86-2.99,0-7.03-.24-12.13-.71-5.1-.47-10.55-1.4-16.35-2.79l-.03-14.32c4.24.07,8.06.16,11.46.27,4.96.16,9.81.26,13.65.27,4.77-.18,10.55.32,10.65-5.14.37-3.72-2.19-4.76-5.34-6.12l-15-6.45c-4.28-1.97-7.62-4.08-10.01-6.34-2.39-2.26-4.07-4.76-5.04-7.49-.97-2.73-1.49-5.7-1.57-8.91-.07-4.15.45-7.58,1.57-10.28,1.12-2.7,2.83-4.79,5.14-6.29,2.31-1.49,5.25-2.57,8.84-3.23,3.59-.66,7.79-.98,12.6-.98Z"/>
        <path class="cls-2" d="M696.39,605.72l-.14,45.15c0,7.87-.94,14.12-2.85,18.75-1.91,4.63-5.06,7.96-9.48,10-4.42,2.04-10.41,3.06-17.99,3.06s-13.62-1.08-18.54-3.23c-4.93-2.15-8.64-5.61-11.13-10.39-2.49-4.77-3.77-11.1-3.85-18.97l.14-44.39h20.55l-.14,45.15c0,4.15.29,7.42.87,9.78.59,2.37,1.69,4.03,3.32,4.97,1.63.95,3.93,1.42,6.92,1.42s5.54-.51,7.22-1.53c1.68-1.02,2.82-2.77,3.42-5.25.6-2.48.97-5.87,1.09-10.17l.03-44.39h20.55Z"/>
      </g>
      <path class="cls-1" d="M625.64,172.93c-.42-.28-.84-.56-1.27-.84-.01,0-.01-.01-.02-.01-.71-.44-1.43-.9-2.16-1.31-.87-.52-1.78-.99-2.68-1.44-.41-.21-.84-.41-1.27-.6-.04-.02-.09-.04-.13-.06-20.23-9.18-44.23-3.24-57.84,14.29-.78,1-1.51,2.03-2.22,3.09,0,0,0,.02-.02.03-.03.1-.12.18-.16.28-.84,1.45-1.66,2.88-2.52,4.35-4.9,8.5-9.83,17.02-14.74,25.53-.18.3-.36.61-.53.92-.23.4-.47.81-.71,1.23-3.01,5.24-6.03,10.43-9.06,15.71.18-.31.36-.62.55-.93-.99,1.69-1.96,3.37-2.94,5.07.24-.4.47-.8.7-1.2-8.81,15.23-17.61,30.5-26.4,45.73-2.01,3.49-3.98,6.9-5.89,10.21-.38.66-.76,1.32-1.15,1.97-1.97,3.43-3.88,6.73-5.69,9.86-.28.49-.56.97-.83,1.45-2.26,3.93-4.37,7.57-6.26,10.85-.24.4-.51.78-.81,1.13-.1.12-.2.23-.31.34-.09.08-.17.16-.26.24-.05.06-.11.11-.17.15-.12.11-.28.22-.41.31-.32.24-.65.44-1,.61-.96.48-2.04.73-3.12.73,0,0-91.82,0-91.82,0-.73,0-1.47-.12-2.17-.35-.04,0-.08-.02-.11-.03-.71-.26-1.4-.61-2-1.08-.49-.37-.92-.81-1.3-1.29-.09-.12-.18-.25-.27-.37-.2-.3-.36-.59-.54-.91-3.71-6.42-6.66-11.53-10.81-18.74-7.78-13.47-15.57-27-23.36-40.49-.82-1.44-1.66-2.87-2.48-4.3-.41-.72-.82-1.44-1.24-2.15-.11-.19-.22-.38-.33-.56-9.59-16.62-19.19-33.27-28.79-49.87.02.04.05.08.08.12-1.74-2.95-3.37-5.88-5.1-8.8.08.12.15.24.23.37-1.54-2.53-2.8-5.11-4.5-7.5-.32-.48-.69-.96-1.04-1.43-13.57-17.75-37.7-23.8-58.04-14.59h0c-.42.19-.83.39-1.25.59,0,0,0,0,0,0-.61.3-1.22.6-1.81.93-.23.12-.45.24-.67.37h0c-1.21.69-2.41,1.41-3.55,2.2-.09.05-.17.1-.25.16-20,13.79-26.47,40.38-15.17,61.9.25.47.51.94.77,1.42l81.5,141.17c4.48,7.73,6.86,16.66,6.85,25.6v3.63h-33.79c-5.55,0-10.05,4.5-10.05,10.05s4.5,10.05,10.05,10.05h33.32c.15-.01.3-.01.46-.01h18.57v-16c0-4.99,4.05-9.04,9.04-9.04s9.04,4.05,9.04,9.04v25.04c0,5.78,3.11,11.16,8.12,14.06,2.46,1.43,5.28,2.18,8.12,2.18h19.08c4.99-.01,9.04,4.04,9.04,9.03s-4.05,9.04-9.04,9.04h-19.08c-6.02.01-11.96-1.59-17.16-4.59-7.91-4.57-13.58-12.08-15.95-20.68h-19.78v19.2c0,1.48.09,2.96.26,4.43.08.65.18,1.3.29,1.95.02.08.03.16.04.25h-34.41c-5.56,0-10.05,4.5-10.05,10.05s4.49,10.05,10.05,10.05h43.85c.39,0,.77-.02,1.16-.07h0c.5.49,1.02.98,1.57,1.46.84.73,1.7,1.42,2.61,2.08l19.34,14.07h-16.92c-5.55,0-10.05,4.49-10.05,10.05s4.5,10.05,10.05,10.05h43.86c.23,0,.45-.01.67-.02h.01l16.29,11.83c.29.21.57.41.86.61.07.04.13.09.2.13.05.04.09.07.14.1.18.12.36.23.54.35,5.6,3.6,12.06,5.64,18.71,5.9.08,0,.16,0,.24,0,.41,0,.82.02,1.24.02h41.42c.4,0,.8-.01,1.21-.02.15,0,.3,0,.45-.02,6.81-.3,13.4-2.45,19.07-6.24.41-.27.81-.55,1.22-.84l16.29-11.84h.01c.23.02.48.03.72.03h43.86c5.55,0,10.05-4.5,10.05-10.05s-4.5-10.05-10.05-10.05h-16.98l19.35-14.07c.9-.66,1.78-1.35,2.61-2.08.54-.47,1.07-.96,1.57-1.46h.01c.38.05.76.07,1.16.07h43.86c5.55,0,10.05-4.49,10.05-10.05s-4.5-10.05-10.05-10.05h-34.42v-.02s0-.03.01-.05l.03-.18c.11-.64.21-1.3.29-1.95.17-1.48.26-2.95.26-4.43v-19.2h-19.78c-2.36,8.6-8.03,16.11-15.94,20.68-5.22,3-11.14,4.6-17.16,4.6h-19.08c-4.99-.01-9.04-4.06-9.04-9.05s4.05-9.04,9.04-9.04h19.08c2.84.01,5.66-.74,8.12-2.17,5-2.89,8.12-8.28,8.12-14.06v-25.04c0-4.99,4.05-9.04,9.04-9.04s9.04,4.05,9.04,9.04v16h18.55s33.84.01,33.84.01c5.55,0,10.05-4.5,10.05-10.05s-4.5-10.05-10.05-10.05h-33.84v-3.62c-.01-8.96,2.4-17.9,6.86-25.62l81.49-141.15h0c.21-.38.42-.75.61-1.13h0c.13-.23.24-.45.35-.67,11.03-21.45,4.51-47.82-15.36-61.53ZM606.38,235.16c0,.11-.01.23-.01.34-.08,2.48-.62,4.94-1.56,7.24-.35.86-.76,1.71-1.24,2.52l-64.91,112.43c-.89,1.53-2,2.89-3.33,4.05-.79.69-1.65,1.31-2.56,1.84l-78.83,45.51c-.09.05-.18.1-.26.16-.09.06-.17.12-.25.18-.16.13-.31.26-.46.41-.87.85-1.36,2.06-1.36,3.28v90.64c0,.35-.05.7-.14,1.05h0c-.09.34-.22.66-.4.96h0c-.08.15-.17.29-.28.43h0c-.11.14-.22.28-.34.4-.25.25-.53.46-.84.64l-17.21,9.93c-.31.18-.63.32-.97.4-.34.1-.68.14-1.04.14-.31,0-.62-.04-.92-.12-.08,0-.15-.03-.23-.06-.29-.08-.58-.2-.85-.36l-17.2-9.93c-.31-.18-.59-.39-.83-.64-.13-.13-.24-.26-.34-.4-.11-.14-.21-.28-.29-.42h0c-.09-.16-.17-.31-.23-.47-.2-.48-.31-1-.31-1.54v-90.65c0-.52-.09-1.02-.25-1.51-.23-.68-.61-1.27-1.12-1.77-.14-.15-.29-.28-.45-.41-.08-.06-.16-.12-.25-.18-.09-.06-.17-.11-.26-.16l-78.82-45.53c-.91-.53-1.77-1.15-2.56-1.84-.26-.23-.52-.47-.76-.72-.98-.98-1.85-2.11-2.55-3.33l-64.93-112.41c-4.55-7.65-3.43-18.06,2.66-24.57h.01c.62-.71,1.33-1.36,2.06-1.96,4.28-3.61,10.09-5.37,15.65-4.71.01-.01.02-.01.03,0,1.27.16,2.54.4,3.77.77,0-.01.02-.01.03,0,5.03,1.49,9.41,4.98,12.03,9.54l62.72,108.6c.7,1.23,1.57,2.34,2.55,3.34.25.24.5.48.76.71.79.69,1.65,1.31,2.56,1.84l65.35,37.73c.45.26.93.46,1.44.6,1.03.28,2.13.28,3.16,0,.25-.07.49-.15.73-.25.12-.05.24-.1.36-.16.12-.06.23-.12.34-.19l65.34-37.71c.91-.53,1.77-1.15,2.56-1.84,1.32-1.16,2.44-2.52,3.33-4.05l62.7-108.62c.16-.27.32-.54.5-.81h0c.17-.28.35-.54.53-.79h0c.08-.12.16-.23.24-.33.1-.14.21-.29.32-.43h0s.15-.19.15-.19c.05-.06.1-.12.15-.18.1-.13.2-.25.3-.37,2.2-2.59,4.96-4.54,7.99-5.78.83-.34,1.69-.63,2.57-.86.89-.24,1.79-.41,2.69-.53,5.36-.74,11.19.84,15.5,4.23,0,0,0,.01.01.01.36.28.72.58,1.07.88,2.51,2.24,4.53,5.1,5.67,8.27.03.05.05.1.06.15.07.16.12.33.17.49.34.99.61,2.02.78,3.05.01.02.01.04.01.06.07.33.1.66.16.99.03.29.08.61.08.89.08.68.07,1.38.08,2.07Z"/>
      <rect class="cls-3" width="860.78" height="860.78"/>
    </g>
  </g>
</svg>