<?xml version="1.0" encoding="UTF-8"?>
<svg id="Layer_2" data-name="Layer 2" xmlns="http://www.w3.org/2000/svg" viewBox="0 0 1559.34 284.44">
  <defs>
    <style>
      .cls-1 {
        fill: #720058;
      }

      .cls-1, .cls-2 {
        stroke-width: 0px;
      }

      .cls-2 {
        fill: none;
      }
    </style>
  </defs>
  <g id="Layer_1-2" data-name="Layer 1">
    <g>
      <g>
        <polygon class="cls-1" points="412.01 73.88 411.89 210.55 374.65 210.55 374.71 151.53 335.09 151.53 335.03 210.55 297.8 210.55 297.92 73.88 335.16 73.88 335.11 124.39 374.73 124.39 374.78 73.88 412.01 73.88"/>
        <path class="cls-1" d="M524.44,113.3c-12-1.92-27.07-3.86-39.08-3.97-8.32,0-15.81.47-22.48,1.39-6.68.93-12.37,2.97-17.07,6.14-4.71,3.17-8.32,8.09-10.82,14.76-2.5,6.67-3.81,15.75-3.92,27.23-.06,11.89.99,21.96,3.13,30.21,2.14,8.25,5.81,14.43,11.01,18.52,5.19,4.09,12.31,5.88,21.34,5.35,8.12-.53,15.17-2.51,21.16-5.94,5.99-3.44,10.85-8.32,14.59-14.66.27-.46.54-.93.79-1.4l2.75,19.62h27.73l.16-95.27c-2.21-.66-5.3-1.32-9.29-1.98ZM495,171.93c-5.14,7.37-15.76,17.39-24.3,11.09-1.38-1.32-2.24-3.93-2.58-7.82-.35-3.9-.51-9.54-.49-16.94.23-8.25.49-15.07,4.57-20.5,3.47-3.9,8.31-4.11,13.76-4.26,4.23,0,8.19.03,11.9.1h.15l-.12,33.84c-.92,1.55-1.88,3.05-2.89,4.49Z"/>
        <path class="cls-1" d="M598.46,109.34c7,0,14.41.56,22.22,1.68,7.81,1.12,14.8,2.94,20.96,5.45l-1.88,21.99c-6.75-.13-12.9-.2-18.45-.2h-14.26c-4.89,0-8.69.69-11.4,2.08-6.99,3.82-7.24,11.77-7.41,20.7.2,9.14.25,17.99,7.35,21.39,2.67,1.19,6.39,1.78,11.14,1.78,6.11-.01,13.43-.14,20.23-.5,4-.2,7.95-.5,11.86-.89l5.78,22.98c-5.84,2.64-12.32,4.49-19.43,5.55-7.12,1.06-14.04,1.58-20.77,1.58-11.62,0-21.44-1.78-29.47-5.35-8.02-3.57-14.07-9.24-18.13-17.03-4.06-7.79-6.12-18.02-6.17-30.7.04-12.01,1.52-21.72,4.45-29.12,2.93-7.39,7.88-12.81,14.87-16.24,6.98-3.43,16.48-5.15,28.5-5.15Z"/>
        <path class="cls-1" d="M764.66,210.55h-37.04l-22.74-38.35c-3.93,1.65-7.81,3.17-11.64,4.54.12,1.23.2,2.4.24,3.51l-.13,30.3h-36.05l.05-138.65h36.05l.21,56.85c-.07,4.22-.49,8.28-1.27,12.18-.75,3.79-1.86,7.74-3.33,11.84,3.61-1.98,7.06-4.28,10.36-6.89,5.59-4.42,10.16-9.54,13.71-15.35,3.54-5.81,5.66-11.95,6.34-18.42h37.04c-1.17,10.56-4.04,19.54-8.62,26.94-4.58,7.39-10.16,13.56-16.73,18.52-.61.46-1.22.91-1.83,1.34,1.63,1.1,3.1,2.31,4.41,3.61,2.99,2.97,5.44,6.11,7.35,9.41l23.62,38.62Z"/>
        <path class="cls-1" d="M825.74,71.11c7.41.13,15.31.66,23.69,1.58,8.38.93,16.43,2.57,24.16,4.95l.18,23.97c-4.11-.13-8.75-.23-13.91-.3-5.16-.06-10.45-.13-15.87-.2-5.43-.06-10.84-.1-16.26-.1-5.6.35-11.95-.71-15.07,4.16-3.89,8.22,2.52,13.7,10.45,16.64l25.26,10.7c7.85,3.3,13.93,6.87,18.23,10.7,4.3,3.83,7.36,8.25,9.18,13.27,1.82,5.02,2.81,10.89,2.96,17.63.12,10.3-1.38,18.29-4.48,23.97-3.1,5.68-8.33,9.64-15.67,11.88-7.35,2.24-17.36,3.37-30.03,3.37-5.42,0-12.74-.43-21.97-1.29-9.23-.86-19.11-2.54-29.62-5.05l-.06-25.95c7.68.13,14.6.3,20.77.5,8.99.3,17.77.47,24.73.5,8.63-.32,19.12.58,19.3-9.31.67-6.75-3.98-8.63-9.67-11.09l-27.18-11.69c-7.76-3.57-13.81-7.39-18.14-11.49-8.78-8.17-11.55-18.07-11.97-29.71-.07-12.89,2.16-23.22,12.15-30.01,4.18-2.71,9.52-4.65,16.02-5.84,6.5-1.19,14.11-1.78,22.83-1.78Z"/>
        <path class="cls-1" d="M1005.84,100.22c-4.7-10.43-11.79-17.76-21.3-21.98-9.5-4.23-21.58-6.34-36.24-6.34-6.21,0-12.44.07-18.69.2-6.25.13-12.26.36-18.03.69-5.76.33-11.12.69-16.09,1.09l-.12,136.67c8.79.53,17.93.99,27.43,1.39,9.49.39,19.66.59,30.49.59s20.85-1.02,28.49-3.07c7.63-2.04,13.71-5.54,18.24-10.5,4.52-4.95,7.77-11.94,9.74-20.99,1.97-9.04,2.98-20.5,3.03-34.37.06-18.48-2.26-32.94-6.95-43.38ZM972.17,163.41c-.9,5.81-2.32,10.3-4.25,13.47-1.94,3.17-4.48,5.32-7.62,6.44-3.15,1.12-6.9,1.68-11.26,1.68-5.43,0-10.96-.06-16.61-.18l.08-85.39h18.45c4.62,0,8.4.56,11.33,1.68,2.93,1.13,5.2,3.21,6.81,6.24,1.61,3.04,2.73,7.27,3.36,12.68.62,5.42.93,12.35.92,20.8.1,9.24-.3,16.77-1.21,22.58Z"/>
        <path class="cls-1" d="M1077.61,71.11c7.41.13,15.31.66,23.69,1.58,8.38.93,16.43,2.57,24.16,4.95l.18,23.97c-4.11-.13-8.75-.23-13.91-.3-5.16-.06-10.45-.13-15.87-.2-5.43-.06-10.84-.1-16.26-.1-7.53.24-16-.61-16.19,8.91.11,1.72.45,3.24,1.03,4.56.58,1.32,1.7,2.51,3.37,3.57,1.66,1.06,4.05,2.31,7.16,3.76l25.26,10.7c7.85,3.3,13.93,6.87,18.23,10.7,4.3,3.83,7.36,8.25,9.18,13.27,1.82,5.02,2.81,10.89,2.96,17.63.12,10.3-1.38,18.29-4.48,23.97-3.1,5.68-8.33,9.64-15.67,11.88-7.35,2.24-17.36,3.37-30.03,3.37-5.42,0-12.74-.43-21.97-1.29-9.23-.86-19.11-2.54-29.62-5.05l-.06-25.95c7.68.13,14.6.3,20.77.5,8.99.3,17.77.47,24.73.5,8.63-.32,19.12.58,19.3-9.31.66-6.75-3.98-8.63-9.67-11.09l-27.18-11.69c-7.76-3.57-13.81-7.39-18.14-11.49-4.33-4.09-7.38-8.62-9.13-13.57-1.75-4.95-2.7-10.33-2.85-16.14-.13-7.53.82-13.73,2.85-18.62,2.02-4.88,5.13-8.68,9.3-11.39,4.18-2.71,9.52-4.65,16.02-5.84,6.5-1.19,14.11-1.78,22.83-1.78Z"/>
        <path class="cls-1" d="M1261.65,73.88l-.26,81.81c.01,14.26-1.71,25.59-5.16,33.97-3.45,8.39-9.18,14.43-17.18,18.12-8,3.7-18.87,5.55-32.6,5.55s-24.67-1.95-33.6-5.84c-8.93-3.89-15.65-10.17-20.16-18.82-4.51-8.65-6.84-20.1-6.98-34.37l.26-80.42h37.24l-.26,81.81c0,7.53.52,13.44,1.58,17.73,1.06,4.29,3.06,7.3,6.01,9.01,2.94,1.72,7.13,2.57,12.54,2.57s10.04-.92,13.08-2.77c3.04-1.85,5.11-5.02,6.2-9.51,1.09-4.49,1.75-10.63,1.98-18.42l.06-80.42h37.24Z"/>
      </g>
      <rect class="cls-2" width="1559.34" height="284.44"/>
    </g>
  </g>
</svg>