<?xml version="1.0" encoding="UTF-8"?>
<svg id="Layer_2" data-name="Layer 2" xmlns="http://www.w3.org/2000/svg" xmlns:xlink="http://www.w3.org/1999/xlink" viewBox="0 0 698.82 698.82">
  <defs>
    <style>
      .cls-1 {
        fill: url(#linear-gradient);
      }

      .cls-1, .cls-2 {
        stroke-width: 0px;
      }

      .cls-2 {
        fill: none;
      }
    </style>
    <linearGradient id="linear-gradient" x1="133.46" y1="350.41" x2="565.36" y2="350.41" gradientUnits="userSpaceOnUse">
      <stop offset="0" stop-color="#ff5f1f"/>
      <stop offset="1" stop-color="purple"/>
    </linearGradient>
  </defs>
  <g id="Layer_1-2" data-name="Layer 1">
    <g>
      <path class="cls-1" d="M544.66,167.49c-.42-.28-.84-.56-1.27-.84-.01,0-.01-.01-.02-.01-.71-.44-1.43-.9-2.16-1.31-.87-.52-1.78-.99-2.68-1.44-.41-.21-.84-.41-1.27-.6-.04-.02-.09-.04-.13-.06-20.23-9.18-44.23-3.24-57.84,14.29-.78,1-1.51,2.03-2.22,3.09,0,0,0,.02-.02.03-.03.1-.12.18-.16.28-.84,1.45-1.66,2.88-2.52,4.35-4.9,8.5-9.83,17.02-14.74,25.53-.18.3-.36.61-.53.92-.23.4-.47.81-.71,1.23-3.01,5.24-6.03,10.43-9.06,15.71.18-.31.36-.62.55-.93-.99,1.69-1.96,3.37-2.94,5.07.24-.4.47-.8.7-1.2-8.81,15.23-17.61,30.5-26.4,45.73-2.01,3.49-3.98,6.9-5.89,10.21-.38.66-.76,1.32-1.15,1.97-1.97,3.43-3.88,6.73-5.69,9.86-.28.49-.56.97-.83,1.45-2.26,3.93-4.37,7.57-6.26,10.85-.24.4-.51.78-.81,1.13-.1.12-.2.23-.31.34-.09.08-.17.16-.26.24-.05.06-.11.11-.17.15-.12.11-.28.22-.41.31-.32.24-.65.44-1,.61-.96.48-2.04.73-3.12.73,0,0-91.82,0-91.82,0-.73,0-1.47-.12-2.17-.35-.04,0-.08-.02-.11-.03-.71-.26-1.4-.61-2-1.08-.49-.37-.92-.81-1.3-1.29-.09-.12-.18-.25-.27-.37-.2-.3-.36-.59-.54-.91-3.71-6.42-6.66-11.53-10.81-18.74-7.78-13.47-15.57-27-23.36-40.49-.82-1.44-1.66-2.87-2.48-4.3-.41-.72-.82-1.44-1.24-2.15-.11-.19-.22-.38-.33-.56-9.59-16.62-19.19-33.27-28.79-49.87.02.04.05.08.08.12-1.74-2.95-3.37-5.88-5.1-8.8.08.12.15.24.23.37-1.54-2.53-2.8-5.11-4.5-7.5-.32-.48-.69-.96-1.04-1.43-13.57-17.75-37.7-23.8-58.04-14.59h0c-.42.19-.83.39-1.25.59,0,0,0,0,0,0-.61.3-1.22.6-1.81.93-.23.12-.45.24-.67.37h0c-1.21.69-2.41,1.41-3.55,2.2-.09.05-.17.1-.25.16-20,13.79-26.47,40.38-15.17,61.9.25.47.51.94.77,1.42l81.5,141.17c4.48,7.73,6.86,16.66,6.85,25.6v3.63h-33.79c-5.55,0-10.05,4.5-10.05,10.05s4.5,10.05,10.05,10.05h33.32c.15-.01.3-.01.46-.01h18.57v-16c0-4.99,4.05-9.04,9.04-9.04s9.04,4.05,9.04,9.04v25.04c0,5.78,3.11,11.16,8.12,14.06,2.46,1.43,5.28,2.18,8.12,2.18h19.08c4.99-.01,9.04,4.04,9.04,9.03s-4.05,9.04-9.04,9.04h-19.08c-6.02.01-11.96-1.59-17.16-4.59-7.91-4.57-13.58-12.08-15.95-20.68h-19.78v19.2c0,1.48.09,2.96.26,4.43.08.65.18,1.3.29,1.95.02.08.03.16.04.25h-34.41c-5.56,0-10.05,4.5-10.05,10.05s4.49,10.05,10.05,10.05h43.85c.39,0,.77-.02,1.16-.07h0c.5.49,1.02.98,1.57,1.46.84.73,1.7,1.42,2.61,2.08l19.34,14.07h-16.92c-5.55,0-10.05,4.49-10.05,10.05s4.5,10.05,10.05,10.05h43.86c.23,0,.45-.01.67-.02h.01l16.29,11.83c.29.21.57.41.86.61.07.04.13.09.2.13.05.04.09.07.14.1.18.12.36.23.54.35,5.6,3.6,12.06,5.64,18.71,5.9.08,0,.16,0,.24,0,.41,0,.82.02,1.24.02h41.42c.4,0,.8-.01,1.21-.02.15,0,.3,0,.45-.02,6.81-.3,13.4-2.45,19.07-6.24.41-.27.81-.55,1.22-.84l16.29-11.84h.01c.23.02.48.03.72.03h43.86c5.55,0,10.05-4.5,10.05-10.05s-4.5-10.05-10.05-10.05h-16.98l19.35-14.07c.9-.66,1.78-1.35,2.61-2.08.54-.47,1.07-.96,1.57-1.46h.01c.38.05.76.07,1.16.07h43.86c5.55,0,10.05-4.49,10.05-10.05s-4.5-10.05-10.05-10.05h-34.42v-.02s0-.03.01-.05l.03-.18c.11-.64.21-1.3.29-1.95.17-1.48.26-2.95.26-4.43v-19.2h-19.78c-2.36,8.6-8.03,16.11-15.94,20.68-5.22,3-11.14,4.6-17.16,4.6h-19.08c-4.99-.01-9.04-4.06-9.04-9.05s4.05-9.04,9.04-9.04h19.08c2.84.01,5.66-.74,8.12-2.17,5-2.89,8.12-8.28,8.12-14.06v-25.04c0-4.99,4.05-9.04,9.04-9.04s9.04,4.05,9.04,9.04v16h18.55s33.84.01,33.84.01c5.55,0,10.05-4.5,10.05-10.05s-4.5-10.05-10.05-10.05h-33.84v-3.62c-.01-8.96,2.4-17.9,6.86-25.62l81.49-141.15h0c.21-.38.42-.75.61-1.13h0c.13-.23.24-.45.35-.67,11.03-21.45,4.51-47.82-15.36-61.53ZM525.4,229.72c0,.11-.01.23-.01.34-.08,2.48-.62,4.94-1.56,7.24-.35.86-.76,1.71-1.24,2.52l-64.91,112.43c-.89,1.53-2,2.89-3.33,4.05-.79.69-1.65,1.31-2.56,1.84l-78.83,45.51c-.09.05-.18.1-.26.16-.09.06-.17.12-.25.18-.16.13-.31.26-.46.41-.87.85-1.36,2.06-1.36,3.28v90.64c0,.35-.05.7-.14,1.05h0c-.09.34-.22.66-.4.96h0c-.08.15-.17.29-.28.43h0c-.11.14-.22.28-.34.4-.25.25-.53.46-.84.64l-17.21,9.93c-.31.18-.63.32-.97.4-.34.1-.68.14-1.04.14-.31,0-.62-.04-.92-.12-.08,0-.15-.03-.23-.06-.29-.08-.58-.2-.85-.36l-17.2-9.93c-.31-.18-.59-.39-.83-.64-.13-.13-.24-.26-.34-.4-.11-.14-.21-.28-.29-.42h0c-.09-.16-.17-.31-.23-.47-.2-.48-.31-1-.31-1.54v-90.65c0-.52-.09-1.02-.25-1.51-.23-.68-.61-1.27-1.12-1.77-.14-.15-.29-.28-.45-.41-.08-.06-.16-.12-.25-.18-.09-.06-.17-.11-.26-.16l-78.82-45.53c-.91-.53-1.77-1.15-2.56-1.84-.26-.23-.52-.47-.76-.72-.98-.98-1.85-2.11-2.55-3.33l-64.93-112.41c-4.55-7.65-3.43-18.06,2.66-24.57h.01c.62-.71,1.33-1.36,2.06-1.96,4.28-3.61,10.09-5.37,15.65-4.71.01-.01.02-.01.03,0,1.27.16,2.54.4,3.77.77,0-.01.02-.01.03,0,5.03,1.49,9.41,4.98,12.03,9.54l62.72,108.6c.7,1.23,1.57,2.34,2.55,3.34.25.24.5.48.76.71.79.69,1.65,1.31,2.56,1.84l65.35,37.73c.45.26.93.46,1.44.6,1.03.28,2.13.28,3.16,0,.25-.07.49-.15.73-.25.12-.05.24-.1.36-.16.12-.06.23-.12.34-.19l65.34-37.71c.91-.53,1.77-1.15,2.56-1.84,1.32-1.16,2.44-2.52,3.33-4.05l62.7-108.62c.16-.27.32-.54.5-.81h0c.17-.28.35-.54.53-.79h0c.08-.12.16-.23.24-.33.1-.14.21-.29.32-.43h0s.15-.19.15-.19c.05-.06.1-.12.15-.18.1-.13.2-.25.3-.37,2.2-2.59,4.96-4.54,7.99-5.78.83-.34,1.69-.63,2.57-.86.89-.24,1.79-.41,2.69-.53,5.36-.74,11.19.84,15.5,4.23,0,0,0,.01.01.01.36.28.72.58,1.07.88,2.51,2.24,4.53,5.1,5.67,8.27.03.05.05.1.06.15.07.16.12.33.17.49.34.99.61,2.02.78,3.05.01.02.01.04.01.06.07.33.1.66.16.99.03.29.08.61.08.89.08.68.07,1.38.08,2.07Z"/>
      <circle class="cls-2" cx="349.41" cy="349.41" r="349.41"/>
    </g>
  </g>
</svg>