<?xml version="1.0" encoding="UTF-8"?>
<svg id="Layer_2" data-name="Layer 2" xmlns="http://www.w3.org/2000/svg" viewBox="0 0 402.33 455.42">
  <defs>
    <style>
      .cls-1 {
        letter-spacing: 0em;
      }

      .cls-2 {
        stroke-width: 0px;
      }

      .cls-3 {
        font-family: Montserrat-ExtraBold, Montserrat;
        font-size: 71.4px;
        font-weight: 700;
      }

      .cls-4 {
        letter-spacing: 0em;
      }

      .cls-5 {
        fill: none;
        stroke: #000;
        stroke-linecap: round;
        stroke-linejoin: round;
        stroke-width: 15px;
      }
    </style>
  </defs>
  <g id="Layer_1-2" data-name="Layer 1">
    <g>
      <text class="cls-3" transform="translate(0 436.29)"><tspan x="0" y="0">H</tspan><tspan class="cls-4" x="57.55" y="0">a</tspan><tspan class="cls-1" x="102.96" y="0">c</tspan><tspan x="145.87" y="0">kSDSU</tspan></text>
      <g>
        <line class="cls-5" x1="321.88" y1="266.97" x2="365.53" y2="266.97"/>
        <line class="cls-5" x1="321.88" y1="207.22" x2="365.53" y2="207.22"/>
        <line class="cls-5" x1="273.55" y1="310.49" x2="317.19" y2="310.49"/>
        <ellipse class="cls-2" cx="257.61" cy="228.68" rx="13.74" ry="18.91"/>
        <line class="cls-5" x1="80.45" y1="266.97" x2="36.81" y2="266.97"/>
        <line class="cls-5" x1="80.45" y1="207.22" x2="36.81" y2="207.22"/>
        <line class="cls-5" x1="128.83" y1="310.49" x2="85.18" y2="310.49"/>
        <path class="cls-5" d="m241.19,268.44h23.74c5.52,0,10.95-1.45,15.73-4.21h0c9.73-5.62,15.72-16,15.72-27.23v-48.08,47.58h25.51m-141.84-4.79l-106.39-61.43h0l55.78-40.55,17.97-13.05c2.62-1.91,5.78-2.93,9.03-2.93h44.74s-44.74,0-44.74,0c-3.24,0-6.4,1.03-9.03,2.93l-73.75,53.6h0c4.47,7.75,6.82,16.53,6.82,25.48v40.96s0,19.76,0,19.76c0,11.89,5.69,23.06,15.31,30.05l19.89,14.45,43.06,31.29c6.35,4.61,13.99,7.1,21.84,7.1h20.62s-.02-28.85-.02-28.85l-21.12-12.19v-92.5c0-1.66-.88-3.19-2.32-4.02l-82.14-47.44L28.81,38.74c-5.73-9.93-2.36-22.62,7.54-28.4h0c9.97-5.82,22.76-2.42,28.53,7.57l64.55,111.81,69.42,40.07c1.44.83,3.21.83,4.64,0l69.42-40.07,64.55-111.81c5.77-9.99,18.56-13.39,28.53-7.57h0c9.9,5.78,13.27,18.47,7.54,28.4l-66.75,115.6-82.16,47.43c-1.44.83-2.32,2.36-2.32,4.02v92.5l-21.13,12.19v28.85h20.62c7.85,0,15.49-2.48,21.84-7.1l43.06-31.29,19.89-14.45c9.62-6.99,15.31-18.16,15.31-30.05v-60.7c0-8.95,2.35-17.74,6.83-25.49h0s-73.76-53.59-73.76-53.59c-2.62-1.91-5.78-2.93-9.03-2.93h-44.74,44.74c3.24,0,6.4,1.03,9.03,2.93l17.97,13.05h0s55.8,40.53,55.8,40.53l-106.41,61.45m-141.84,4.79h25.51v-47.58s0,48.08,0,48.08c0,11.23,5.99,21.61,15.72,27.23h0c4.78,2.76,10.21,4.22,15.73,4.22h23.74"/>
        <ellipse class="cls-2" cx="144.72" cy="228.68" rx="13.74" ry="18.91"/>
      </g>
    </g>
  </g>
</svg>