<?xml version="1.0" encoding="UTF-8"?>
<svg id="Layer_2" data-name="Layer 2" xmlns="http://www.w3.org/2000/svg" viewBox="0 0 439.83 391.13">
  <defs>
    <style>
      .cls-1 {
        stroke-width: 0px;
      }
    </style>
  </defs>
  <g id="Layer_1-2" data-name="Layer 1">
    <path class="cls-1" d="m351.73,219.62s0,0,0,0l.05-.08s0,0,0-.01l81.12-140.51c6.84-12.06,8.7-26.08,5.22-39.47-3.49-13.44-11.97-24.78-23.88-31.94-24.41-14.67-55.8-7.54-71.45,16.23-.11.17-.45.68-76.02,131.67h-93.69C97.49,24.52,97.16,24.01,97.05,23.85,81.39.07,50.01-7.06,25.6,7.61,13.68,14.77,5.2,26.12,1.71,39.55c-3.47,13.39-1.62,27.41,5.24,39.51l81.11,140.48c4.02,6.98,6.15,14.92,6.15,22.98v6.48h-38.66c-2.76,0-5,2.24-5,5s2.24,5,5,5h38.66v23.94c0,.11-.01.22-.01.33s0,.22.01.33v19.64c0,1.86.14,3.7.38,5.52h-39.04c-2.76,0-5,2.24-5,5s2.24,5,5,5h41.65c2.91,7.34,7.85,13.83,14.37,18.57l20.56,14.94h-28.21c-2.76,0-5,2.24-5,5s2.24,5,5,5h41.98l28.63,20.8c7.25,5.27,15.82,8.05,24.78,8.05h41.22c8.96,0,17.53-2.78,24.78-8.05l28.63-20.8h42.02c2.76,0,5-2.24,5-5s-2.24-5-5-5h-28.25l20.56-14.94c6.53-4.74,11.46-11.24,14.37-18.57h41.65c2.76,0,5-2.24,5-5s-2.24-5-5-5h-39.04c.24-1.82.38-3.66.38-5.52v-19.64c0-.11.01-.22.01-.33s0-.22-.01-.33v-23.94h38.66c2.76,0,5-2.24,5-5s-2.24-5-5-5h-38.66v-6.47c0-8.06,2.13-16.01,6.11-22.91Zm-.53-190.37c12.71-19.2,38.12-24.95,57.89-13.07,20.06,12.05,26.7,37.49,15.13,57.88l-78.32,135.67-13.79-10.01,64.49-111.69c7.09-12.27,2.89-28.07-9.35-35.21-5.98-3.49-12.95-4.43-19.64-2.66-6.69,1.78-12.28,6.05-15.74,12.05l-61.77,106.99-13.88-10.08c26.5-45.93,73.09-126.67,74.97-129.86Zm-105.15,240.57v-17.04l79.18-45.72,13.06,9.48-25.49,14.72c-.12.06-.23.13-.34.2l-66.42,38.35Zm77.93-76.02l-25.74-18.69,62.3-107.91c2.12-3.67,5.55-6.29,9.64-7.38,4.1-1.09,8.37-.51,12.04,1.63,7.5,4.38,10.07,14.06,5.73,21.58l-63.97,110.78Zm-104.06-28.29h48.11l14.47,10.51-62.58,36.13-62.58-36.13,14.47-10.51h48.1Zm-125.96,44.22L15.63,74.09c-11.58-20.42-4.95-45.86,15.11-57.91,6.95-4.18,14.6-6.17,22.15-6.17,13.92,0,27.5,6.79,35.74,19.24,1.88,3.19,48.47,83.93,74.97,129.86l-13.88,10.08-61.77-106.99c-3.46-5.99-9.05-10.27-15.74-12.05-6.69-1.78-13.67-.83-19.64,2.66-12.24,7.14-16.43,22.94-9.35,35.21l64.51,111.68-13.79,10.03Zm33.49,21.77c-.15-.1-.31-.19-.47-.27l-25.41-14.67,13.07-9.5,79.16,45.72v17.04l-66.35-38.31Zm-24.98-2.88l17.25,9.96v39.68h-15.5v-35.75c0-4.7-.59-9.37-1.75-13.89ZM51.89,83.03c-4.34-7.52-1.77-17.2,5.73-21.58,2.45-1.43,5.18-2.16,7.95-2.16,1.36,0,2.73.18,4.09.54,4.1,1.09,7.52,3.71,9.64,7.38l62.3,107.9-25.72,18.69-63.99-110.77Zm147.42,298.1c-6.83,0-13.37-2.12-18.9-6.14l-29.73-21.6c-.15-.12-.31-.24-.48-.35l-32.74-23.79c-8.3-6.03-13.25-15.75-13.25-26v-14.97h15.78c1.4,11.23,8.01,21.34,17.94,27.07,5.53,3.2,11.84,4.89,18.23,4.89h23.74c2.76,0,5-2.24,5-5,0-2.76-2.24-5-5-5h-23.74c-4.64,0-9.21-1.22-13.23-3.54-8.15-4.71-13.22-13.49-13.22-22.9v-39.41l26.33,15.21c-3.79,3.36-6.31,9.22-6.31,15.89,0,10.44,6.15,18.91,13.74,18.91s13.74-8.46,13.74-18.91c0-1.31-.1-2.6-.28-3.84l16.87,9.74v63.71c0,1.79.95,3.44,2.5,4.33l18.62,10.75v20.97s-15.6,0-15.6,0Zm4.48-38.93v-63.62c0-.06,0-.12,0-.19v-25.82c0-3.43-1.85-6.63-4.82-8.35l-75.48-43.6,24.99-18.17,66.61,38.46c2.97,1.72,6.67,1.72,9.64,0l66.6-38.45,25.02,18.17-75.5,43.59c-2.97,1.72-4.82,4.92-4.82,8.35v25.82c0,.06,0,.12,0,.19v63.61l-16.13,9.31-16.12-9.31Zm131.83-38.96c0,10.25-4.95,19.98-13.25,26l-32.86,23.88s-.01,0-.02.01l-30.07,21.85c-5.53,4.02-12.06,6.14-18.9,6.14h-15.6v-20.97s18.62-10.75,18.62-10.75c1.55-.89,2.5-2.54,2.5-4.33v-63.71l16.87-9.74c-.19,1.24-.28,2.52-.28,3.84,0,10.44,6.15,18.91,13.74,18.91s13.74-8.46,13.74-18.91c0-6.67-2.52-12.53-6.31-15.89l26.34-15.21v39.42c0,9.42-5.07,18.19-13.22,22.9-4.02,2.32-8.59,3.54-13.23,3.54h-23.74s0,0,0,0c-2.76,0-5,2.24-5,5s2.24,5,5,5h23.74s0,0,0,0c6.39,0,12.69-1.69,18.23-4.89,9.93-5.73,16.54-15.84,17.94-27.07h15.78v14.97Zm0-24.97h-15.5v-39.69l17.26-9.96c-1.16,4.53-1.76,9.21-1.76,13.91v35.74Z"/>
  </g>
</svg>