<?xml version="1.0" encoding="UTF-8"?>
<svg id="Layer_2" data-name="Layer 2" xmlns="http://www.w3.org/2000/svg" viewBox="0 0 444.83 512.21">
  <defs>
    <style>
      .cls-1 {
        letter-spacing: 0em;
      }

      .cls-2 {
        stroke-width: 0px;
      }

      .cls-3 {
        font-family: Montserrat-ExtraBold, Montserrat;
        font-size: 71.4px;
        font-weight: 700;
      }

      .cls-4 {
        letter-spacing: 0em;
      }
    </style>
  </defs>
  <g id="Layer_1-2" data-name="Layer 1">
    <g>
      <text class="cls-3" transform="translate(21.25 493.08)"><tspan x="0" y="0">H</tspan><tspan class="cls-4" x="57.55" y="0">a</tspan><tspan class="cls-1" x="102.96" y="0">c</tspan><tspan x="145.87" y="0">kSDSU</tspan></text>
      <g>
        <path class="cls-2" d="m386.78,323.76s0,0,0,0h-43.65c-4.14,0-7.5-3.36-7.5-7.5s3.36-7.5,7.5-7.5c0,0,0,0,0,0h43.65c4.14,0,7.5,3.36,7.5,7.5s-3.36,7.5-7.5,7.5Z"/>
        <path class="cls-2" d="m386.78,264.01s0,0,0,0h-43.65c-4.14,0-7.5-3.36-7.5-7.5s3.36-7.5,7.5-7.5c0,0,0,0,0,0h43.65c4.14,0,7.5,3.36,7.5,7.5s-3.36,7.5-7.5,7.5Z"/>
        <path class="cls-2" d="m338.44,367.28s0,0,0,0h-43.65c-4.14,0-7.5-3.36-7.5-7.5s3.36-7.5,7.5-7.5c0,0,0,0,0,0h43.65c4.14,0,7.5,3.36,7.5,7.5s-3.36,7.5-7.5,7.5Z"/>
        <ellipse class="cls-2" cx="278.86" cy="277.97" rx="13.74" ry="18.91"/>
        <path class="cls-2" d="m58.05,323.76c-4.14,0-7.5-3.36-7.5-7.5s3.36-7.5,7.5-7.5h43.65c4.14,0,7.5,3.36,7.5,7.5s-3.36,7.5-7.5,7.5h-43.65Z"/>
        <path class="cls-2" d="m58.05,264.01c-4.14,0-7.5-3.36-7.5-7.5s3.36-7.5,7.5-7.5h43.65c4.14,0,7.5,3.36,7.5,7.5s-3.36,7.5-7.5,7.5h-43.65Z"/>
        <path class="cls-2" d="m106.43,367.28c-4.14,0-7.5-3.36-7.5-7.5s3.36-7.5,7.5-7.5h43.65c4.14,0,7.5,3.36,7.5,7.5s-3.36,7.5-7.5,7.5h-43.65Z"/>
        <path class="cls-2" d="m243.03,396.13h-41.22c-9.49,0-18.57-2.95-26.25-8.53l-62.95-45.75c-11.52-8.37-18.4-21.87-18.4-36.12v-19.56c0-.13-.01-.27-.01-.4s0-.27.01-.4v-40.35c0-7.62-2.01-15.13-5.81-21.73L7.29,82.81C.09,70.13-1.85,55.45,1.79,41.43,5.44,27.35,14.33,15.47,26.81,7.97,52.37-7.39,85.24.08,101.64,24.97c.16.24.48.74,75.38,130.54h90.8C342.71,25.71,343.04,25.21,343.2,24.97,359.59.08,392.46-7.39,418.02,7.97c12.48,7.5,21.36,19.38,25.02,33.46,3.64,14.03,1.7,28.7-5.47,41.33l-81.12,140.52c-3.81,6.61-5.83,14.13-5.83,21.75v40.34c0,.13.01.27.01.4s0,.27-.01.4v19.56c0,14.24-6.88,27.74-18.4,36.12l-62.95,45.75c-7.68,5.58-16.75,8.53-26.25,8.53Zm-13.1-15h13.1c6.3,0,12.33-1.96,17.43-5.66l62.95-45.74c7.65-5.56,12.22-14.53,12.22-23.98v-12.47h-11.13c-2.04,11.11-8.87,20.98-18.83,26.73-5.91,3.42-12.65,5.22-19.48,5.22h-23.74c-4.14,0-7.5-3.36-7.5-7.5,0-4.14,3.36-7.5,7.5-7.5h23.74s0,0,0,0c4.2,0,8.34-1.11,11.98-3.21,7.38-4.26,11.97-12.21,11.97-20.74v-35.09l-59.08,34.12v62.27c0,2.68-1.43,5.16-3.75,6.5l-17.38,10.03v17.02Zm-120.71-87.86v12.47c0,9.46,4.57,18.42,12.22,23.98l62.95,45.74c5.1,3.7,11.13,5.66,17.43,5.66h13.11v-17.02s-17.37-10.03-17.37-10.03c-2.32-1.34-3.75-3.82-3.75-6.5v-62.27l-59.08-34.11v35.08c0,8.53,4.59,16.47,11.97,20.74,3.64,2.1,7.78,3.21,11.98,3.21h23.74c4.14,0,7.5,3.35,7.5,7.5s-3.36,7.5-7.5,7.5h-23.74s0,0,0,0c-6.83,0-13.56-1.81-19.48-5.22-9.96-5.75-16.79-15.62-18.83-26.73h-11.13Zm99.58,49.98l13.62,7.86,13.63-7.87v-62.13c0-.09,0-.18,0-.27v-25.78c0-4.32,2.33-8.35,6.07-10.52l72.16-41.67-20.59-14.95-65.2,37.64c-3.74,2.16-8.4,2.16-12.14,0l-65.21-37.65-20.57,14.95,72.15,41.67c3.74,2.16,6.07,6.19,6.07,10.52v25.77c0,.09,0,.18,0,.28v62.12Zm-100.27-107.18c.46,2.95.69,5.94.69,8.95v33.25h10.5v-35.74l-11.19-6.46Zm216.6,42.2h10.5s0-33.24,0-33.24c0-3.01.23-6.01.69-8.97l-11.19,6.46v35.74Zm-193.88-46.4l62.54,36.11v-11.26l-76.5-44.19-8.65,6.28,22.01,12.71c.2.11.4.22.59.34Zm119.8,24.85v11.26l62.62-36.16c.14-.09.28-.17.43-.25l22.1-12.77-8.63-6.27-76.52,44.18Zm-86.62-78.44l58,33.48,58-33.48-10.7-7.77h-47.29s0,0,0,0h-47.29l-10.7,7.77ZM55.39,15.01c-7.11,0-14.31,1.88-20.86,5.82-18.89,11.35-25.14,35.3-14.23,54.53l76.92,133.22,9.73-7.07-63.39-109.73c-7.77-13.46-3.18-30.79,10.25-38.62,6.56-3.83,14.21-4.86,21.54-2.91,7.34,1.95,13.47,6.64,17.26,13.21l60.38,104.59,9.81-7.12c-26.51-45.94-71.51-123.93-73.8-127.84-7.77-11.69-20.54-18.07-33.62-18.07Zm282.51,186.5l9.72,7.06,76.93-133.26c10.88-19.18,4.63-43.13-14.25-54.48-18.6-11.18-42.49-5.79-54.48,12.25-2.28,3.9-47.29,81.89-73.8,127.84l9.81,7.12,60.38-104.59c3.8-6.57,9.93-11.27,17.26-13.21,7.34-1.95,14.99-.91,21.54,2.91,13.42,7.84,18.02,25.16,10.25,38.62l-63.37,109.74Zm-33.87-24.6l21.67,15.74,62.58-108.37c3.66-6.33,1.49-14.48-4.82-18.17-3.08-1.8-6.68-2.29-10.13-1.37-3.45.92-6.33,3.12-8.12,6.22l-61.18,105.96ZM68.07,64.29c-2.33,0-4.63.62-6.69,1.82-6.31,3.69-8.48,11.84-4.82,18.17l62.6,108.37,21.65-15.74-61.17-105.95c-1.79-3.09-4.67-5.3-8.12-6.22-1.14-.3-2.29-.45-3.44-.45Z"/>
        <ellipse class="cls-2" cx="165.97" cy="277.97" rx="13.74" ry="18.91"/>
      </g>
    </g>
  </g>
</svg>