<?xml version="1.0" encoding="UTF-8"?>
<svg id="Layer_2" data-name="Layer 2" xmlns="http://www.w3.org/2000/svg" xmlns:xlink="http://www.w3.org/1999/xlink" viewBox="0 0 860.78 860.78">
  <defs>
    <style>
      .cls-1 {
        fill: url(#linear-gradient);
      }

      .cls-1, .cls-2, .cls-3 {
        stroke-width: 0px;
      }

      .cls-2 {
        fill: none;
      }

      .cls-3 {
        fill: purple;
      }
    </style>
    <linearGradient id="linear-gradient" x1="231" y1="353.28" x2="629.77" y2="353.28" gradientUnits="userSpaceOnUse">
      <stop offset="0" stop-color="#ff5f1f"/>
      <stop offset="1" stop-color="purple"/>
    </linearGradient>
  </defs>
  <g id="Layer_1-2" data-name="Layer 1">
    <g>
      <g>
        <polygon class="cls-3" points="227.43 595.72 227.36 671.16 206.81 671.16 206.84 638.58 184.97 638.58 184.94 671.16 164.39 671.16 164.45 595.72 185.01 595.72 184.98 623.6 206.85 623.6 206.88 595.72 227.43 595.72"/>
        <path class="cls-3" d="M289.48,617.48c-6.62-1.06-14.94-2.13-21.57-2.19-4.59,0-8.73.26-12.41.77-3.69.51-6.83,1.64-9.42,3.39-2.6,1.75-4.59,4.47-5.97,8.15-1.38,3.68-2.1,8.69-2.16,15.03-.03,6.56.55,12.12,1.73,16.67,1.18,4.55,3.21,7.96,6.08,10.22,2.86,2.26,6.79,3.25,11.78,2.95,4.48-.29,8.37-1.39,11.68-3.28,3.31-1.9,5.99-4.59,8.05-8.09.15-.25.3-.51.44-.77l1.52,10.83h15.31l.09-52.58c-1.22-.36-2.93-.73-5.13-1.09ZM273.23,649.84c-2.84,4.07-8.7,9.6-13.41,6.12-.76-.73-1.24-2.17-1.42-4.32-.19-2.15-.28-5.27-.27-9.35.13-4.55.27-8.32,2.52-11.31,1.92-2.15,4.59-2.27,7.59-2.35,2.33,0,4.52.02,6.57.06h.08l-.07,18.68c-.51.86-1.04,1.68-1.6,2.48Z"/>
        <path class="cls-3" d="M330.34,615.29c3.86,0,7.95.31,12.27.93,4.31.62,8.17,1.62,11.57,3.01l-1.04,12.14c-3.73-.07-7.12-.11-10.18-.11h-7.87c-2.7,0-4.79.38-6.29,1.15-3.86,2.11-4,6.49-4.09,11.42.11,5.05.14,9.93,4.05,11.81,1.48.66,3.53.98,6.15.98,3.37,0,7.41-.08,11.17-.27,2.21-.11,4.39-.27,6.55-.49l3.19,12.68c-3.22,1.46-6.8,2.48-10.72,3.06-3.93.58-7.75.87-11.47.87-6.41,0-11.84-.98-16.26-2.95-4.43-1.97-7.76-5.1-10-9.4-2.24-4.3-3.38-9.95-3.41-16.95.02-6.63.84-11.99,2.46-16.07,1.62-4.08,4.35-7.07,8.2-8.96,3.85-1.89,9.1-2.84,15.73-2.84Z"/>
        <path class="cls-3" d="M422.07,671.16h-20.44l-12.55-21.17c-2.17.91-4.31,1.75-6.42,2.51.07.68.11,1.32.13,1.94l-.07,16.72h-19.9l.03-76.53h19.9l.12,31.38c-.04,2.33-.27,4.57-.7,6.72-.41,2.09-1.03,4.27-1.84,6.53,1.99-1.09,3.9-2.36,5.72-3.8,3.09-2.44,5.61-5.27,7.57-8.47,1.95-3.21,3.12-6.6,3.5-10.17h20.44c-.65,5.83-2.23,10.78-4.76,14.87-2.53,4.08-5.61,7.48-9.23,10.22-.34.25-.67.5-1.01.74.9.61,1.71,1.27,2.43,1.99,1.65,1.64,3,3.37,4.06,5.19l13.04,21.32Z"/>
        <path class="cls-3" d="M455.78,594.19c4.09.07,8.45.37,13.08.87,4.63.51,9.07,1.42,13.34,2.73l.1,13.23c-2.27-.07-4.83-.13-7.68-.16-2.85-.04-5.77-.07-8.76-.11-2.99-.04-5.98-.05-8.97-.05-3.09.19-6.6-.39-8.32,2.3-2.15,4.54,1.39,7.56,5.77,9.18l13.94,5.9c4.34,1.82,7.69,3.79,10.06,5.9,2.37,2.11,4.06,4.56,5.07,7.32,1.01,2.77,1.55,6.01,1.63,9.73.06,5.69-.76,10.1-2.47,13.23-1.71,3.13-4.6,5.32-8.65,6.56-4.05,1.24-9.58,1.86-16.58,1.86-2.99,0-7.03-.24-12.13-.71-5.1-.47-10.55-1.4-16.35-2.79l-.03-14.32c4.24.07,8.06.16,11.46.27,4.96.16,9.81.26,13.65.27,4.77-.18,10.55.32,10.65-5.14.37-3.72-2.2-4.76-5.34-6.12l-15-6.45c-4.28-1.97-7.62-4.08-10.01-6.34-4.85-4.51-6.37-9.97-6.61-16.4-.04-7.12,1.19-12.82,6.71-16.56,2.31-1.49,5.25-2.57,8.84-3.23,3.59-.66,7.79-.98,12.6-.98Z"/>
        <path class="cls-3" d="M555.19,610.26c-2.59-5.76-6.51-9.8-11.76-12.13-5.24-2.33-11.91-3.5-20-3.5-3.43,0-6.87.04-10.32.11-3.45.07-6.77.2-9.95.38-3.18.18-6.14.38-8.88.6l-.07,75.43c4.85.29,9.9.55,15.14.77,5.24.22,10.85.33,16.83.33s11.51-.56,15.73-1.69c4.21-1.13,7.57-3.06,10.07-5.8,2.49-2.73,4.29-6.59,5.38-11.59,1.09-4.99,1.64-11.31,1.67-18.97.03-10.2-1.25-18.18-3.84-23.94ZM536.61,645.14c-.5,3.21-1.28,5.68-2.35,7.43-1.07,1.75-2.47,2.94-4.21,3.55-1.74.62-3.81.93-6.21.93-3,0-6.05-.03-9.17-.1l.04-47.13h10.18c2.55,0,4.64.31,6.25.93,1.62.62,2.87,1.77,3.76,3.44.89,1.68,1.51,4.01,1.85,7,.34,2.99.51,6.82.51,11.48.06,5.1-.17,9.26-.67,12.46Z"/>
        <path class="cls-3" d="M594.81,594.19c4.09.07,8.45.37,13.08.87,4.63.51,9.07,1.42,13.34,2.73l.1,13.23c-2.27-.07-4.83-.13-7.68-.16-2.85-.04-5.77-.07-8.76-.11-2.99-.04-5.98-.05-8.97-.05-4.16.13-8.83-.34-8.93,4.92.06.95.25,1.79.57,2.51.32.73.94,1.39,1.86,1.97.92.58,2.24,1.28,3.95,2.08l13.94,5.9c4.34,1.82,7.69,3.79,10.06,5.9,2.37,2.11,4.06,4.56,5.07,7.32,1.01,2.77,1.55,6.01,1.63,9.73.06,5.69-.76,10.1-2.47,13.23-1.71,3.13-4.6,5.32-8.65,6.56-4.05,1.24-9.58,1.86-16.58,1.86-2.99,0-7.03-.24-12.13-.71-5.1-.47-10.55-1.4-16.35-2.79l-.03-14.32c4.24.07,8.06.16,11.46.27,4.96.16,9.81.26,13.65.27,4.77-.18,10.55.32,10.65-5.14.37-3.72-2.19-4.76-5.34-6.12l-15-6.45c-4.28-1.97-7.62-4.08-10.01-6.34-2.39-2.26-4.07-4.76-5.04-7.49-.97-2.73-1.49-5.7-1.57-8.91-.07-4.15.45-7.58,1.57-10.28,1.12-2.7,2.83-4.79,5.14-6.29,2.31-1.49,5.25-2.57,8.84-3.23,3.59-.66,7.79-.98,12.6-.98Z"/>
        <path class="cls-3" d="M696.39,595.72l-.14,45.15c0,7.87-.94,14.12-2.85,18.75-1.91,4.63-5.06,7.96-9.48,10-4.42,2.04-10.41,3.06-17.99,3.06s-13.62-1.08-18.54-3.23c-4.93-2.15-8.64-5.61-11.13-10.39-2.49-4.77-3.77-11.1-3.85-18.97l.14-44.39h20.55l-.14,45.15c0,4.15.29,7.42.87,9.78.59,2.37,1.69,4.03,3.32,4.97,1.63.95,3.93,1.42,6.92,1.42s5.54-.51,7.22-1.53c1.68-1.02,2.82-2.77,3.42-5.25.6-2.48.97-5.87,1.09-10.17l.03-44.39h20.55Z"/>
      </g>
      <rect class="cls-2" width="860.78" height="860.78"/>
      <path class="cls-1" d="M629.68,186.16c0-.33-.06-.68-.09-1.01-.06-.39-.1-.76-.18-1.13,0-.02,0-.05-.01-.07-.19-1.18-.5-2.33-.88-3.46-.06-.18-.11-.39-.19-.57-.01-.06-.03-.11-.07-.17-1.29-3.59-3.58-6.82-6.42-9.37-.4-.34-.8-.68-1.21-1-.01,0-.01-.01-.01-.01-4.88-3.84-11.49-5.63-17.56-4.79-1.02.14-2.04.33-3.05.6-1.01.26-1.97.59-2.92.99-3.42,1.39-6.55,3.6-9.04,6.54-.11.14-.24.27-.35.43l-.17.2-.17.2h0c-.12.17-.25.34-.36.5-.09.11-.18.24-.27.36h0c-.2.29-.41.59-.6.9h0c-.2.33-.39.63-.57.94l-71.05,123.06c-.58,1.02-1.29,1.97-2.06,2.84,0,0-14.06-9.87-20.49-14.37-2.28-1.6-5-2.45-7.78-2.45h-106.99c-2.78,0-5.47.84-7.76,2.42-6.76,4.71-20.94,14.62-20.94,14.62-.85-.94-1.55-1.98-2.19-3.09l-71.07-123.04c-2.97-5.17-7.93-9.12-13.63-10.81-.01-.02-.02-.02-.03-.01-1.38-.42-2.82-.69-4.26-.87-.01-.01-.02-.01-.03,0-6.3-.75-12.88,1.25-17.73,5.34-.83.68-1.63,1.43-2.33,2.22h-.01c-6.9,7.38-8.17,19.17-3.01,27.84l73.56,127.36c.73,1.27,2.38,3.63,2.38,3.63l-.26.32c-12.73,9.52-19.03,25.14-17.24,40.93.24,2.16.36,4.33.36,6.5v4.11h-38.3c-6.53,0-11.78,5.51-11.35,12.15.4,6.05,5.69,10.63,11.75,10.63h37.37c.17-.01.34-.01.52-.01h21.04v-17.79c0-5.46,4.12-10.22,9.57-10.57,5.97-.37,10.91,4.34,10.91,10.23v28.37c0,6.55,3.52,12.64,9.2,15.93,2.8,1.61,5.98,2.47,9.2,2.47h21.63c5.65-.01,10.24,4.58,10.24,10.23s-4.59,10.25-10.24,10.25h-21.63c-6.82.01-13.54-1.8-19.44-5.21-8.96-5.18-15.39-13.67-18.07-23.43h-22.4v21.77c0,1.67.1,3.35.29,5.02.1.83.23,1.64.37,2.48h0s-38.59.01-38.59.01c-6.06,0-11.35,4.57-11.75,10.62-.43,6.64,4.82,12.16,11.35,12.16h49.69c.44,0,.87-.02,1.3-.08h.01c.57.56,1.17,1.11,1.78,1.64.95.83,1.93,1.61,2.96,2.36l21.92,15.94h-19.18c-6.28,0-11.38,5.09-11.38,11.39s5.1,11.39,11.38,11.39h49.7c.26,0,.51-.01.76-.02h.01l18.46,13.39c.33.25.65.48.97.7.08.05.15.1.23.15.06.05.1.08.16.11.2.14.42.26.62.4,6.33,4.08,13.65,6.39,21.2,6.68.09.01.18.01.27.01.46.01.93.02,1.39.02h46.93c.46,0,.92-.01,1.37-.02.17,0,.34-.01.51-.02,7.72-.34,15.19-2.78,21.61-7.07.48-.31.93-.62,1.38-.96l18.46-13.4h.01c.26.02.54.03.82.03h49.31c6.07,0,11.38-4.6,11.75-10.66.41-6.63-4.84-12.11-11.36-12.11h-19.24l21.93-15.94c1.02-.75,2.02-1.53,2.96-2.36.61-.53,1.2-1.09,1.78-1.64h.01c.43.06.86.08,1.3.08h49.31c6.06,0,11.35-4.58,11.75-10.63.43-6.64-4.83-12.15-11.36-12.15h-38.99v-.02s0-.03.01-.06l.03-.2c.12-.74.24-1.47.33-2.21.18-1.68.29-3.34.29-5.02v-21.77h-22.41c-2.67,9.76-9.09,18.25-18.05,23.43-5.91,3.41-12.63,5.22-19.45,5.22h-21.62c-5.65-.01-10.24-4.6-10.24-10.26s4.59-10.24,10.24-10.24h21.62c3.23.01,6.41-.85,9.2-2.46,5.68-3.29,9.2-9.38,9.2-15.93v-28.01c0-5.46,4.11-10.22,9.55-10.58,5.97-.4,10.94,4.32,10.94,10.22v18.13h21.02s38.34.01,38.34.01c6.55,0,11.81-5.55,11.36-12.18-.41-6.04-5.71-10.59-11.76-10.59h-37.94v-4.1c0-2.21.13-4.42.37-6.61,1.81-15.76-4.46-31.35-17.14-40.88l-.56-.42s0,0,0,0c.11-.14,1.87-2.24,2.58-3.46l73.54-127.38c.53-.92,1-1.88,1.4-2.85,1.06-2.61,1.68-5.39,1.76-8.2,0-.12.01-.26.01-.39,0-.78.01-1.57-.09-2.35ZM549.34,329.95c.58.44.61,1.31.05,1.77-.97.81-2.33,1.89-3,2.28l-90.45,51.56c-.1.06-.2.11-.29.18-.1.07-.19.14-.28.2-.19.15-.36.29-.53.46-.99.97-1.54,2.33-1.53,3.72v94.76c0,.4-.06.79-.16,1.18-.09.38-.26.76-.46,1.1-.08.17-.2.32-.32.49h0c-.13.16-.25.32-.39.45-.28.28-.6.52-.95.74l-18.38,11.24c-.35.2-.71.36-1.1.45-.8.25-1.68.21-2.48-.04-.33-.09-.66-.23-.97-.41l-18.35-11.24c-.35-.22-.67-.45-.94-.74-.42-.44-.77-.91-.99-1.46-.23-.56-.35-1.14-.35-1.74v-94.77c0-.59-.1-1.16-.28-1.71-.26-.76-.69-1.44-1.27-2.01-.16-.17-.33-.32-.51-.46-.09-.07-.18-.14-.28-.2s-.19-.12-.29-.18l-90.43-51.58-3.12-1.82c-.7-.41-.76-1.4-.11-1.89l34.68-25.89c1.58-1.18,3.7-1.29,5.39-.28,13.94,8.3,75.74,44.61,75.74,44.61.77.46,1.65.74,2.56.88,1.17.18,2.36-.01,3.44-.48h.02c.15-.06.28-.12.42-.19.14-.07.26-.14.39-.22,0,0,61.9-36.39,75.86-44.81,1.7-1.02,3.84-.91,5.43.28l34.25,25.77Z"/>
    </g>
  </g>
</svg>