<?xml version="1.0" encoding="UTF-8"?>
<svg id="Layer_2" data-name="Layer 2" xmlns="http://www.w3.org/2000/svg" viewBox="0 0 351.97 333.45">
  <defs>
    <style>
      .cls-1 {
        fill: #fff;
        stroke-width: 0px;
      }
    </style>
  </defs>
  <g id="Layer_1-2" data-name="Layer 1">
    <path class="cls-1" d="M351.89,19.22c0-.29-.05-.6-.08-.89-.05-.34-.09-.67-.16-1,0-.02,0-.04-.01-.06-.17-1.04-.44-2.06-.78-3.05-.05-.16-.1-.34-.17-.5-.01-.05-.03-.1-.06-.15-1.14-3.17-3.16-6.02-5.67-8.27-.35-.3-.71-.6-1.07-.88,0,0,0,0,0,0-4.31-3.39-10.14-4.97-15.5-4.23-.9.12-1.8.29-2.69.53-.89.23-1.74.52-2.58.87-3.02,1.23-5.78,3.18-7.98,5.77-.1.12-.21.24-.31.38l-.15.18-.15.18h0c-.11.15-.22.3-.32.44-.08.1-.16.21-.24.32h0c-.18.26-.36.52-.53.79h0c-.18.29-.34.56-.5.83l-62.71,108.62c-.51.9-1.14,1.74-1.82,2.51,0,0-12.41-8.71-18.09-12.69-2.01-1.41-4.41-2.16-6.87-2.16h-94.43c-2.45,0-4.83.74-6.85,2.14-5.97,4.16-18.48,12.9-18.48,12.9-.75-.83-1.37-1.74-1.93-2.72L39.02,10.47c-2.62-4.56-7-8.05-12.03-9.54-.01-.02-.02-.02-.03,0-1.22-.37-2.49-.61-3.76-.77,0-.01-.02-.01-.03,0-5.56-.66-11.37,1.1-15.65,4.71-.73.6-1.44,1.26-2.06,1.96h-.01C-.64,13.33-1.76,23.74,2.79,31.39l64.93,112.41c.65,1.13,2.1,3.2,2.1,3.2l-.23.28c-11.24,8.4-16.8,22.19-15.22,36.13.21,1.91.32,3.82.32,5.74v3.63H20.89c-5.76,0-10.4,4.86-10.02,10.72.35,5.34,5.02,9.38,10.37,9.38h32.98c.15,0,.3,0,.46,0h18.57v-15.7c0-4.82,3.64-9.02,8.45-9.33,5.27-.33,9.63,3.83,9.63,9.03v25.04c0,5.78,3.11,11.16,8.12,14.06,2.47,1.42,5.28,2.18,8.12,2.18h19.09c4.99-.01,9.04,4.04,9.04,9.03s-4.05,9.05-9.04,9.05h-19.09c-6.02,0-11.95-1.59-17.16-4.6-7.91-4.57-13.58-12.07-15.95-20.68h-19.77v19.21c0,1.47.09,2.96.26,4.43.09.73.2,1.45.33,2.19h0s-34.06.01-34.06.01c-5.35,0-10.02,4.03-10.37,9.37-.38,5.86,4.25,10.73,10.02,10.73h43.86c.39,0,.77-.02,1.15-.07h0c.5.49,1.03.98,1.57,1.45.84.73,1.7,1.42,2.61,2.08l19.35,14.07h-16.93c-5.54,0-10.04,4.49-10.04,10.05s4.5,10.05,10.04,10.05h43.87c.23,0,.45-.01.67-.02h.01l16.29,11.82c.29.22.57.42.86.62.07.04.13.09.2.13.05.04.09.07.14.1.18.12.37.23.55.35,5.59,3.6,12.05,5.64,18.71,5.9.08,0,.16,0,.24,0,.41.01.82.02,1.23.02h41.42c.41,0,.81,0,1.21-.02.15,0,.3,0,.45-.02,6.81-.3,13.41-2.45,19.07-6.24.42-.27.82-.55,1.22-.85l16.29-11.83h0c.23.02.48.03.72.03h43.52c5.36,0,10.04-4.06,10.37-9.41.36-5.85-4.27-10.69-10.03-10.69h-16.98l19.36-14.07c.9-.66,1.78-1.35,2.61-2.08.54-.47,1.06-.96,1.57-1.45h0c.38.05.76.07,1.15.07h43.52c5.35,0,10.02-4.04,10.37-9.38.38-5.86-4.26-10.72-10.03-10.72h-34.41v-.02s0-.03.01-.05l.03-.18c.11-.65.21-1.3.29-1.95.16-1.48.26-2.95.26-4.43v-19.21h-19.78c-2.36,8.61-8.02,16.11-15.93,20.68-5.22,3.01-11.15,4.61-17.17,4.61h-19.08c-4.99,0-9.04-4.06-9.04-9.06s4.05-9.04,9.04-9.04h19.08c2.85.01,5.66-.75,8.12-2.17,5.01-2.9,8.12-8.28,8.12-14.06v-24.72c0-4.82,3.63-9.02,8.43-9.34,5.27-.35,9.66,3.81,9.66,9.02v16h18.55s33.84,0,33.84,0c5.78,0,10.42-4.9,10.03-10.75-.36-5.33-5.04-9.35-10.38-9.35h-33.49v-3.62c0-1.95.11-3.9.33-5.83,1.6-13.91-3.94-27.67-15.13-36.08l-.49-.37s0,0,0,0c.1-.12,1.65-1.98,2.28-3.05l64.91-112.43c.47-.81.88-1.66,1.24-2.52.94-2.3,1.48-4.76,1.55-7.24,0-.11,0-.23,0-.34,0-.69,0-1.39-.08-2.07ZM280.97,146.13c.51.39.54,1.15.04,1.56-.86.72-2.06,1.67-2.65,2.01l-79.83,45.51c-.09.05-.18.1-.26.16-.09.06-.17.12-.25.18-.17.13-.32.26-.47.41-.87.86-1.36,2.06-1.35,3.28v83.64c0,.35-.05.7-.14,1.04-.08.33-.23.67-.41.97-.07.15-.17.29-.28.43h0c-.11.14-.22.28-.34.4-.25.25-.53.46-.84.65l-16.22,9.92c-.31.18-.63.32-.97.4-.71.22-1.49.19-2.19-.04-.29-.08-.58-.2-.86-.36l-16.2-9.92c-.31-.19-.59-.4-.83-.65-.37-.39-.68-.81-.87-1.29-.2-.49-.31-1.01-.31-1.54v-83.65c0-.52-.09-1.02-.25-1.51-.23-.67-.61-1.27-1.12-1.77-.14-.15-.29-.28-.45-.41-.08-.06-.16-.12-.25-.18s-.17-.11-.26-.16l-79.82-45.53-2.75-1.61c-.62-.36-.67-1.24-.09-1.66l30.61-22.85c1.39-1.04,3.27-1.14,4.76-.25,12.3,7.33,66.85,39.38,66.85,39.38.68.41,1.46.65,2.26.78,1.03.16,2.08,0,3.04-.42h.02c.13-.05.25-.11.37-.17.12-.06.23-.12.34-.19,0,0,54.63-32.12,66.95-39.55,1.5-.9,3.39-.81,4.79.25l30.23,22.74Z"/>
  </g>
</svg>